<svg width="20" height="20" viewBox="0 0 20 20" fill="none" xmlns="http://www.w3.org/2000/svg">
<g clip-path="url(#clip0_140_336)">
<path d="M18.9286 19.2863H11.7858M11.7858 12.1434H18.9286M11.7858 15.7148H18.9286M7.85721 1.42913H0.714355V8.57199H7.85721V1.42913ZM19.2858 8.57199H11.4286L15.3572 0.714844L19.2858 8.57199ZM4.28578 19.2863C5.23299 19.2863 6.14139 18.91 6.81117 18.2402C7.48094 17.5705 7.85721 16.662 7.85721 15.7148C7.85721 14.7676 7.48094 13.8592 6.81117 13.1895C6.14139 12.5197 5.23299 12.1434 4.28578 12.1434C3.33858 12.1434 2.43018 12.5197 1.7604 13.1895C1.09063 13.8592 0.714355 14.7676 0.714355 15.7148C0.714355 16.662 1.09063 17.5705 1.7604 18.2402C2.43018 18.91 3.33858 19.2863 4.28578 19.2863Z" stroke="white" stroke-width="1.71429" stroke-linecap="round" stroke-linejoin="round"/>
</g>
<defs>
<clipPath id="clip0_140_336">
<rect width="20" height="20" fill="white"/>
</clipPath>
</defs>
</svg>
